<mxfile host="app.diagrams.net" modified="2021-04-11T10:41:33.727Z" agent="5.0 (Windows NT 10.0; Win64; x64) AppleWebKit/537.36 (KHTML, like Gecko) Chrome/89.0.4389.114 Safari/537.36" etag="Go-AzTEXaUM8RXmUf83_" version="14.5.10" type="github">
  <diagram id="kgpKYQtTHZ0yAKxKKP6v" name="Page-1">
    <mxGraphModel dx="782" dy="482" grid="1" gridSize="10" guides="1" tooltips="1" connect="1" arrows="1" fold="1" page="1" pageScale="1" pageWidth="850" pageHeight="1100" math="0" shadow="0">
      <root>
        <mxCell id="0" />
        <mxCell id="1" parent="0" />
        <mxCell id="3nuBFxr9cyL0pnOWT2aG-1" value="Client" style="shape=umlLifeline;perimeter=lifelinePerimeter;container=1;collapsible=0;recursiveResize=0;rounded=0;shadow=0;strokeWidth=1;" parent="1" vertex="1">
          <mxGeometry x="120" y="80" width="100" height="300" as="geometry" />
        </mxCell>
        <mxCell id="3nuBFxr9cyL0pnOWT2aG-2" value="" style="points=[];perimeter=orthogonalPerimeter;rounded=0;shadow=0;strokeWidth=1;" parent="3nuBFxr9cyL0pnOWT2aG-1" vertex="1">
          <mxGeometry x="50" y="200" width="10" height="190" as="geometry" />
        </mxCell>
        <mxCell id="3nuBFxr9cyL0pnOWT2aG-3" value="dispatch" style="verticalAlign=bottom;startArrow=oval;endArrow=block;startSize=8;shadow=0;strokeWidth=1;" parent="3nuBFxr9cyL0pnOWT2aG-1" target="3nuBFxr9cyL0pnOWT2aG-2" edge="1">
          <mxGeometry relative="1" as="geometry">
            <mxPoint x="-15" y="70" as="sourcePoint" />
          </mxGeometry>
        </mxCell>
        <mxCell id="3nuBFxr9cyL0pnOWT2aG-4" value="" style="points=[];perimeter=orthogonalPerimeter;rounded=0;shadow=0;strokeWidth=1;" parent="3nuBFxr9cyL0pnOWT2aG-1" vertex="1">
          <mxGeometry x="50" y="200" width="10" height="80" as="geometry" />
        </mxCell>
        <mxCell id="3nuBFxr9cyL0pnOWT2aG-5" value="Server" style="shape=umlLifeline;perimeter=lifelinePerimeter;container=1;collapsible=0;recursiveResize=0;rounded=0;shadow=0;strokeWidth=1;" parent="1" vertex="1">
          <mxGeometry x="300" y="80" width="100" height="300" as="geometry" />
        </mxCell>
        <mxCell id="3nuBFxr9cyL0pnOWT2aG-6" value="" style="points=[];perimeter=orthogonalPerimeter;rounded=0;shadow=0;strokeWidth=1;" parent="3nuBFxr9cyL0pnOWT2aG-5" vertex="1">
          <mxGeometry x="45" y="200" width="10" height="160" as="geometry" />
        </mxCell>
        <mxCell id="3nuBFxr9cyL0pnOWT2aG-7" value="return" style="verticalAlign=bottom;endArrow=open;dashed=1;endSize=8;exitX=0;exitY=0.95;shadow=0;strokeWidth=1;" parent="1" source="3nuBFxr9cyL0pnOWT2aG-6" target="3nuBFxr9cyL0pnOWT2aG-2" edge="1">
          <mxGeometry relative="1" as="geometry">
            <mxPoint x="275" y="236" as="targetPoint" />
          </mxGeometry>
        </mxCell>
        <mxCell id="3nuBFxr9cyL0pnOWT2aG-8" value="Ping()" style="verticalAlign=bottom;endArrow=block;entryX=0.51;entryY=0.2;shadow=0;strokeWidth=1;exitX=0.47;exitY=0.2;exitDx=0;exitDy=0;exitPerimeter=0;entryDx=0;entryDy=0;entryPerimeter=0;" parent="1" source="3nuBFxr9cyL0pnOWT2aG-1" target="3nuBFxr9cyL0pnOWT2aG-5" edge="1">
          <mxGeometry relative="1" as="geometry">
            <mxPoint x="275" y="160" as="sourcePoint" />
          </mxGeometry>
        </mxCell>
        <mxCell id="3nuBFxr9cyL0pnOWT2aG-9" value="Ack()" style="verticalAlign=bottom;endArrow=block;shadow=0;strokeWidth=1;entryX=0.48;entryY=0.277;entryDx=0;entryDy=0;entryPerimeter=0;exitX=0.5;exitY=0.277;exitDx=0;exitDy=0;exitPerimeter=0;" parent="1" source="3nuBFxr9cyL0pnOWT2aG-5" target="3nuBFxr9cyL0pnOWT2aG-1" edge="1">
          <mxGeometry x="-0.011" relative="1" as="geometry">
            <mxPoint x="240" y="200" as="sourcePoint" />
            <Array as="points">
              <mxPoint x="300" y="163" />
              <mxPoint x="260" y="163" />
              <mxPoint x="220" y="163" />
            </Array>
            <mxPoint as="offset" />
          </mxGeometry>
        </mxCell>
        <mxCell id="3nuBFxr9cyL0pnOWT2aG-10" value="return" style="verticalAlign=bottom;endArrow=open;dashed=1;endSize=8;exitX=1;exitY=0.95;shadow=0;strokeWidth=1;" parent="1" source="3nuBFxr9cyL0pnOWT2aG-4" target="3nuBFxr9cyL0pnOWT2aG-6" edge="1">
          <mxGeometry relative="1" as="geometry">
            <mxPoint x="240" y="257" as="targetPoint" />
          </mxGeometry>
        </mxCell>
        <mxCell id="RZMJvkIF46mRGNTkvYng-1" value="" style="endArrow=classic;html=1;exitX=0.48;exitY=0.363;exitDx=0;exitDy=0;exitPerimeter=0;entryX=0.48;entryY=0.363;entryDx=0;entryDy=0;entryPerimeter=0;" edge="1" parent="1" source="3nuBFxr9cyL0pnOWT2aG-5" target="3nuBFxr9cyL0pnOWT2aG-1">
          <mxGeometry width="50" height="50" relative="1" as="geometry">
            <mxPoint x="380" y="280" as="sourcePoint" />
            <mxPoint x="160" y="190" as="targetPoint" />
          </mxGeometry>
        </mxCell>
        <mxCell id="RZMJvkIF46mRGNTkvYng-2" value="LoginRequest()" style="text;html=1;strokeColor=none;fillColor=none;align=center;verticalAlign=middle;whiteSpace=wrap;rounded=0;" vertex="1" parent="1">
          <mxGeometry x="240" y="170" width="40" height="20" as="geometry" />
        </mxCell>
        <mxCell id="RZMJvkIF46mRGNTkvYng-3" value="" style="endArrow=classic;html=1;entryX=0.47;entryY=0.463;entryDx=0;entryDy=0;entryPerimeter=0;" edge="1" parent="1" source="3nuBFxr9cyL0pnOWT2aG-1" target="3nuBFxr9cyL0pnOWT2aG-5">
          <mxGeometry width="50" height="50" relative="1" as="geometry">
            <mxPoint x="380" y="280" as="sourcePoint" />
            <mxPoint x="350" y="230" as="targetPoint" />
          </mxGeometry>
        </mxCell>
        <mxCell id="RZMJvkIF46mRGNTkvYng-4" value="LoginData(username,pwd_hash)" style="text;html=1;strokeColor=none;fillColor=none;align=center;verticalAlign=middle;whiteSpace=wrap;rounded=0;" vertex="1" parent="1">
          <mxGeometry x="240" y="200" width="40" height="20" as="geometry" />
        </mxCell>
      </root>
    </mxGraphModel>
  </diagram>
</mxfile>
